<mxfile host="app.diagrams.net" modified="2022-10-16T15:35:35.591Z" agent="5.0 (Windows NT 10.0; Win64; x64) AppleWebKit/537.36 (KHTML, like Gecko) Chrome/106.0.0.0 Safari/537.36" etag="Bs6wvDLO3eGuIfeqt_d3" version="20.4.1" type="github">
  <diagram id="3D1058ljRKjlek5NKKC2" name="Page-1">
    <mxGraphModel dx="868" dy="431" grid="1" gridSize="10" guides="1" tooltips="1" connect="1" arrows="1" fold="1" page="1" pageScale="1" pageWidth="850" pageHeight="1100" math="0" shadow="0">
      <root>
        <mxCell id="0" />
        <mxCell id="1" parent="0" />
        <mxCell id="D4_WHVzedBiPU1sMu_YN-2" value="" style="ellipse;shape=cloud;whiteSpace=wrap;html=1;" vertex="1" parent="1">
          <mxGeometry x="145" y="100" width="120" height="80" as="geometry" />
        </mxCell>
        <mxCell id="D4_WHVzedBiPU1sMu_YN-5" value="" style="rounded=0;whiteSpace=wrap;html=1;" vertex="1" parent="1">
          <mxGeometry x="150" y="210" width="440" height="230" as="geometry" />
        </mxCell>
        <mxCell id="D4_WHVzedBiPU1sMu_YN-6" value="" style="verticalLabelPosition=bottom;html=1;verticalAlign=top;align=center;strokeColor=none;fillColor=#00BEF2;shape=mxgraph.azure.computer;pointerEvents=1;" vertex="1" parent="1">
          <mxGeometry x="180" y="290" width="50" height="45" as="geometry" />
        </mxCell>
        <mxCell id="D4_WHVzedBiPU1sMu_YN-7" value="" style="verticalLabelPosition=bottom;html=1;verticalAlign=top;align=center;strokeColor=none;fillColor=#00BEF2;shape=mxgraph.azure.computer;pointerEvents=1;" vertex="1" parent="1">
          <mxGeometry x="490" y="290" width="50" height="45" as="geometry" />
        </mxCell>
        <mxCell id="D4_WHVzedBiPU1sMu_YN-9" value="192.168.1.2" style="text;html=1;strokeColor=none;fillColor=none;align=center;verticalAlign=middle;whiteSpace=wrap;rounded=0;" vertex="1" parent="1">
          <mxGeometry x="180" y="340" width="60" height="30" as="geometry" />
        </mxCell>
        <mxCell id="D4_WHVzedBiPU1sMu_YN-10" value="192.168.1.1" style="text;html=1;strokeColor=none;fillColor=none;align=center;verticalAlign=middle;whiteSpace=wrap;rounded=0;" vertex="1" parent="1">
          <mxGeometry x="480" y="335" width="60" height="30" as="geometry" />
        </mxCell>
        <mxCell id="D4_WHVzedBiPU1sMu_YN-13" value="" style="endArrow=classic;html=1;rounded=0;" edge="1" parent="1" source="D4_WHVzedBiPU1sMu_YN-6" target="D4_WHVzedBiPU1sMu_YN-2">
          <mxGeometry width="50" height="50" relative="1" as="geometry">
            <mxPoint x="400" y="250" as="sourcePoint" />
            <mxPoint x="450" y="200" as="targetPoint" />
          </mxGeometry>
        </mxCell>
        <mxCell id="D4_WHVzedBiPU1sMu_YN-14" value="" style="endArrow=classic;html=1;rounded=0;exitX=0;exitY=0.5;exitDx=0;exitDy=0;exitPerimeter=0;entryX=1;entryY=0.5;entryDx=0;entryDy=0;entryPerimeter=0;" edge="1" parent="1" source="D4_WHVzedBiPU1sMu_YN-7" target="D4_WHVzedBiPU1sMu_YN-6">
          <mxGeometry width="50" height="50" relative="1" as="geometry">
            <mxPoint x="400" y="250" as="sourcePoint" />
            <mxPoint x="240" y="320" as="targetPoint" />
          </mxGeometry>
        </mxCell>
        <mxCell id="D4_WHVzedBiPU1sMu_YN-15" value="" style="verticalLabelPosition=bottom;html=1;verticalAlign=top;align=center;strokeColor=none;fillColor=#00BEF2;shape=mxgraph.azure.computer;pointerEvents=1;" vertex="1" parent="1">
          <mxGeometry x="600" y="97.5" width="50" height="45" as="geometry" />
        </mxCell>
        <mxCell id="D4_WHVzedBiPU1sMu_YN-17" value="ngrok" style="text;html=1;strokeColor=none;fillColor=none;align=center;verticalAlign=middle;whiteSpace=wrap;rounded=0;" vertex="1" parent="1">
          <mxGeometry x="170" y="120" width="60" height="30" as="geometry" />
        </mxCell>
        <mxCell id="D4_WHVzedBiPU1sMu_YN-18" value="&lt;b&gt;&lt;font style=&quot;font-size: 19px;&quot;&gt;www.ngrok.com&lt;/font&gt;&lt;/b&gt;" style="html=1;strokeWidth=1;shadow=0;dashed=0;shape=mxgraph.ios7ui.url;fillColor=#ffe6cc;strokeColor=#d79b00;buttonText=;strokeColor2=#222222;fontSize=8;spacingTop=2;align=center;" vertex="1" parent="1">
          <mxGeometry x="300" y="20" width="210" height="20" as="geometry" />
        </mxCell>
        <mxCell id="D4_WHVzedBiPU1sMu_YN-20" value="&lt;b&gt;&lt;font style=&quot;font-size: 19px;&quot;&gt;xyz.ngrok.com&lt;/font&gt;&lt;/b&gt;" style="html=1;strokeWidth=1;shadow=0;dashed=0;shape=mxgraph.ios7ui.url;fillColor=#ffe6cc;strokeColor=#d79b00;buttonText=;strokeColor2=#222222;fontSize=8;spacingTop=2;align=center;" vertex="1" parent="1">
          <mxGeometry x="300" y="50" width="210" height="20" as="geometry" />
        </mxCell>
        <mxCell id="D4_WHVzedBiPU1sMu_YN-21" value="subdomain" style="text;html=1;strokeColor=none;fillColor=none;align=center;verticalAlign=middle;whiteSpace=wrap;rounded=0;fontSize=19;" vertex="1" parent="1">
          <mxGeometry x="530" y="50" width="60" height="30" as="geometry" />
        </mxCell>
        <mxCell id="D4_WHVzedBiPU1sMu_YN-22" value="" style="endArrow=classic;html=1;rounded=0;fontSize=19;entryX=0.524;entryY=1;entryDx=0;entryDy=0;entryPerimeter=0;exitX=0;exitY=0.5;exitDx=0;exitDy=0;exitPerimeter=0;" edge="1" parent="1" source="D4_WHVzedBiPU1sMu_YN-15" target="D4_WHVzedBiPU1sMu_YN-20">
          <mxGeometry width="50" height="50" relative="1" as="geometry">
            <mxPoint x="400" y="220" as="sourcePoint" />
            <mxPoint x="450" y="170" as="targetPoint" />
          </mxGeometry>
        </mxCell>
        <mxCell id="D4_WHVzedBiPU1sMu_YN-24" value="" style="endArrow=classic;html=1;rounded=0;fontSize=19;entryX=0.917;entryY=0.413;entryDx=0;entryDy=0;entryPerimeter=0;exitX=0.267;exitY=0.9;exitDx=0;exitDy=0;exitPerimeter=0;" edge="1" parent="1" source="D4_WHVzedBiPU1sMu_YN-20" target="D4_WHVzedBiPU1sMu_YN-2">
          <mxGeometry width="50" height="50" relative="1" as="geometry">
            <mxPoint x="360" y="170" as="sourcePoint" />
            <mxPoint x="310" y="92.5" as="targetPoint" />
          </mxGeometry>
        </mxCell>
      </root>
    </mxGraphModel>
  </diagram>
</mxfile>
